<?xml version="1.0" encoding="UTF-8"?>
<svg width="150px" height="200px" viewBox="0 0 26 28" version="1.1" xmlns="http://www.w3.org/2000/svg" xmlns:xlink="http://www.w3.org/1999/xlink">
    <!-- Generator: Sketch 57.1 (83088) - https://sketch.com -->
    <title>Device Rotate Icon</title>
    <desc>Created with Sketch.</desc>
    <g id="Page-1" stroke="none" stroke-width="1" fill="none" fill-rule="evenodd">
        <g id="Artboard" transform="translate(-224.000000, -370.000000)" fill="#ffffff" fill-rule="nonzero">
            <g id="Device-Rotate-Icon" transform="translate(224.000000, 370.032607)">
                <path d="M23,5.96739295 C24.5976809,5.96739295 25.9036609,7.21631291 25.9949073,8.79112016 L26,8.96739295 L26,24.9673929 C26,26.5650738 24.75108,27.8710538 23.1762728,27.9623003 L23,27.9673929 L15,27.9673929 C13.4023191,27.9673929 12.0963391,26.718473 12.0050927,25.1436657 L12,24.9673929 L12,8.96739295 C12,7.36971206 13.24892,6.06373207 14.8237272,5.97248564 L15,5.96739295 L23,5.96739295 Z M10,14.9673929 L10,27.9673929 L2,27.9673929 C0.8954305,27.9673929 0,27.0719624 0,25.9673929 L0,16.9673929 C0,15.8628234 0.8954305,14.9673929 2,14.9673929 L10,14.9673929 Z M23,7.96739295 L15,7.96739295 C14.4871642,7.96739295 14.0644928,8.35343314 14.0067277,8.85077182 L14,8.96739295 L14,24.9673929 C14,25.4802288 14.3860402,25.9029001 14.8833789,25.9606652 L15,25.9673929 L23,25.9673929 C23.5128358,25.9673929 23.9355072,25.5813528 23.9932723,25.0840141 L24,24.9673929 L24,8.96739295 C24,8.4151082 23.5522847,7.96739295 23,7.96739295 Z M8,16.9673929 L2,16.9673929 L2,25.9673929 L8,25.9673929 L8,16.9673929 Z M19.0760977,21.9494838 L19.2,21.9673929 L19.38,22.0473929 L19.4729921,22.0864087 L19.56,22.1373929 L19.71,22.2573929 C19.7988939,22.3465826 19.8701426,22.4517593 19.92,22.5673929 C20.0765967,22.93979 19.9937446,23.3698322 19.71,23.6573929 C19.610519,23.7453953 19.4994948,23.8194114 19.38,23.8773929 C19.0062626,24.029278 18.5778636,23.9417184 18.2936967,23.6553657 C18.0095299,23.3690129 17.9252555,22.9399555 18.08,22.5673929 C18.1306419,22.4462154 18.2016691,22.3345939 18.29,22.2373929 C18.4987484,22.0296662 18.7866769,21.9260131 19.0760977,21.9494838 Z M8.24280842,0.287792211 C8.63615001,-0.0998943082 9.2692984,-0.0953099668 9.65698492,0.298031624 L9.65698492,0.298031624 L12.6569201,3.34172597 C13.0448983,3.73536352 13.0399726,4.36908973 12.6459225,4.75664892 L12.6459225,4.75664892 L9.64598735,7.70716816 C9.25223351,8.09443596 8.61909036,8.08917799 8.23182255,7.69542414 C7.84455475,7.30167029 7.84981273,6.66852714 8.24356657,6.28125934 L8.24356657,6.28125934 L9.501,5.043 L7,5.04369451 C5.9456382,5.04369451 5.08183488,5.8595723 5.00548574,6.89443217 L5,7.04369451 L5,12.0436945 C5,12.5959793 4.55228475,13.0436945 4,13.0436945 C3.48716416,13.0436945 3.06449284,12.6576543 3.00672773,12.1603156 L3,12.0436945 L3,7.04369451 C3,4.90149912 4.68396847,3.15261564 6.80035966,3.04858982 L7,3.04369451 L9.554,3.043 L8.23256901,1.7019687 C7.87470453,1.33888416 7.85108268,0.771467199 8.1589399,0.381394765 Z" id="Rotate-Icon-"></path>
            </g>
        </g>
    </g>
</svg>