<?xml version="1.0" encoding="UTF-8"?>
<svg width="22px" height="20px" viewBox="0 0 22 20" version="1.1" xmlns="http://www.w3.org/2000/svg" xmlns:xlink="http://www.w3.org/1999/xlink">
    <!-- Generator: sketchtool 57.1 (101010) - https://sketch.com -->
    <title>1BD6F4E8-4351-43F7-80D6-D3B9B0A7B4D7</title>
    <desc>Created with sketchtool.</desc>
    <g id="Page-1" stroke="none" stroke-width="1" fill="none" fill-rule="evenodd">
        <g id="1.02-Overview-Page" transform="translate(-634.000000, -363.000000)" fill="#8E5EAA" fill-rule="nonzero">
            <g id="Head-Office" transform="translate(609.000000, 327.000000)">
                <g id="bag" transform="translate(25.000000, 36.000000)">
                    <path d="M17.952,3.168 L14.784,3.168 L14.784,2.112 C14.784,0.945574608 13.8384254,0 12.672,0 L8.448,0 C7.28157461,0 6.336,0.945574608 6.336,2.112 L6.336,3.168 L3.168,3.168 C1.41836191,3.168 0,4.58636191 0,6.336 L0,15.84 C0,17.5896381 1.41836191,19.008 3.168,19.008 L17.952,19.008 C19.7016381,19.008 21.12,17.5896381 21.12,15.84 L21.12,6.336 C21.12,4.58636191 19.7016381,3.168 17.952,3.168 Z M8.448,2.112 L12.672,2.112 L12.672,3.168 L8.448,3.168 L8.448,2.112 Z M19.008,15.84 C19.008,16.4232127 18.5352127,16.896 17.952,16.896 L3.168,16.896 C2.5847873,16.896 2.112,16.4232127 2.112,15.84 L2.112,9.91584 L7.05408,11.616 C7.16620627,11.6312139 7.27987373,11.6312139 7.392,11.616 L13.728,11.616 C13.8425199,11.6138825 13.9562127,11.596118 14.06592,11.5632 L19.008,9.91584 L19.008,15.84 Z M19.008,7.68768 L13.55904,9.504 L7.56096,9.504 L2.112,7.68768 L2.112,6.336 C2.112,5.7527873 2.5847873,5.28 3.168,5.28 L17.952,5.28 C18.5352127,5.28 19.008,5.7527873 19.008,6.336 L19.008,7.68768 Z" id="Shape"></path>
                </g>
            </g>
        </g>
    </g>
</svg>