<?xml version="1.0" encoding="UTF-8"?>
<svg width="12px" height="12px" viewBox="0 0 12 12" version="1.1" xmlns="http://www.w3.org/2000/svg" xmlns:xlink="http://www.w3.org/1999/xlink">
    <!-- Generator: sketchtool 57.1 (101010) - https://sketch.com -->
    <title>CC662CF9-D44C-485B-9BC0-D8C841790BA4</title>
    <desc>Created with sketchtool.</desc>
    <g id="Page-1" stroke="none" stroke-width="1" fill="none" fill-rule="evenodd">
        <g id="2.-Overview-Theme---Side-Nav-Closed-1" transform="translate(-22.000000, -307.000000)" fill="#FFFFFF" fill-rule="nonzero">
            <g id="Side-Nav">
                <g id="Icons" transform="translate(20.000000, 78.000000)">
                    <g id="exclamation-circle" transform="translate(2.000000, 229.000000)">
                        <path d="M6,3 C5.66862915,3 5.4,3.26862915 5.4,3.6 L5.4,6 C5.4,6.33137085 5.66862915,6.6 6,6.6 C6.33137085,6.6 6.6,6.33137085 6.6,6 L6.6,3.6 C6.6,3.26862915 6.33137085,3 6,3 Z M6.552,8.172 C6.53886701,8.13376545 6.52070785,8.09744712 6.498,8.064 L6.426,7.974 C6.25346358,7.80375326 5.99543826,7.75404196 5.772,7.848 C5.69928906,7.87838512 5.63232056,7.92100144 5.574,7.974 C5.46168809,8.0872313 5.39907794,8.24051821 5.39998996,8.4 C5.40094799,8.47840635 5.41725542,8.55586661 5.448,8.628 C5.50255428,8.77873815 5.62126185,8.89744572 5.772,8.952 C5.91722393,9.01618607 6.08277607,9.01618607 6.228,8.952 C6.37873815,8.89744572 6.49744572,8.77873815 6.552,8.628 C6.58274458,8.55586661 6.59905201,8.47840635 6.6,8.4 C6.60294516,8.36005421 6.60294516,8.31994579 6.6,8.28 C6.58966904,8.24173873 6.57347731,8.20530734 6.552,8.172 L6.552,8.172 Z M6,-4.4408921e-16 C2.6862915,-4.4408921e-16 1.77635684e-15,2.6862915 1.77635684e-15,6 C1.77635684e-15,9.3137085 2.6862915,12 6,12 C9.3137085,12 12,9.3137085 12,6 C12,4.40870106 11.367859,2.88257758 10.2426407,1.75735931 C9.11742242,0.632141042 7.59129894,-4.4408921e-16 6,-4.4408921e-16 Z M6,10.8 C3.3490332,10.8 1.2,8.6509668 1.2,6 C1.2,3.3490332 3.3490332,1.2 6,1.2 C8.6509668,1.2 10.8,3.3490332 10.8,6 C10.8,7.27303915 10.2942872,8.49393793 9.39411255,9.39411255 C8.49393793,10.2942872 7.27303915,10.8 6,10.8 Z" id="Shape"></path>
                    </g>
                </g>
            </g>
        </g>
    </g>
</svg>