<?xml version="1.0" encoding="UTF-8"?>
<svg width="14px" height="14px" viewBox="0 0 14 14" version="1.1" xmlns="http://www.w3.org/2000/svg" xmlns:xlink="http://www.w3.org/1999/xlink">
    <!-- Generator: sketchtool 57.1 (101010) - https://sketch.com -->
    <title>89BCA0DC-2302-44AD-8FA5-4A2E3D4579D8</title>
    <desc>Created with sketchtool.</desc>
    <g id="Page-1" stroke="none" stroke-width="1" fill="none" fill-rule="evenodd">
        <g id="2.-Overview-Theme---Side-Nav-Closed-1" transform="translate(-21.000000, -217.000000)" fill="#FFFFFF" fill-rule="nonzero">
            <g id="Side-Nav">
                <g id="Icons" transform="translate(20.000000, 78.000000)">
                    <g id="finance-icon" transform="translate(1.000000, 139.000000)">
                        <path d="M6,4.8 L8.4,4.8 C8.73137085,4.8 9,4.53137085 9,4.2 C9,3.86862915 8.73137085,3.6 8.4,3.6 L7.2,3.6 L7.2,3 C7.2,2.66862915 6.93137085,2.4 6.6,2.4 C6.26862915,2.4 6,2.66862915 6,3 L6,3.6 C5.00588745,3.6 4.2,4.40588745 4.2,5.4 C4.2,6.39411255 5.00588745,7.2 6,7.2 L7.2,7.2 C7.53137085,7.2 7.8,7.46862915 7.8,7.8 C7.8,8.13137085 7.53137085,8.4 7.2,8.4 L4.8,8.4 C4.46862915,8.4 4.2,8.66862915 4.2,9 C4.2,9.33137085 4.46862915,9.6 4.8,9.6 L6,9.6 L6,10.2 C6,10.5313708 6.26862915,10.8 6.6,10.8 C6.93137085,10.8 7.2,10.5313708 7.2,10.2 L7.2,9.6 C8.19411253,9.59999998 9,8.79411253 9,7.8 C9,6.80588747 8.19411253,6.00000002 7.2,6 L6,6 C5.66862915,6 5.4,5.73137085 5.4,5.4 C5.4,5.06862915 5.66862915,4.8 6,4.8 Z M6.6,-8.8817842e-16 C2.95492065,-8.8817842e-16 -8.8817842e-16,2.95492065 -8.8817842e-16,6.6 C-8.8817842e-16,10.2450793 2.95492065,13.2 6.6,13.2 C10.2450793,13.2 13.2,10.2450793 13.2,6.6 C13.2,4.84957117 12.5046449,3.17083534 11.2669048,1.93309524 C10.0291647,0.695355146 8.35042883,-8.8817842e-16 6.6,-8.8817842e-16 Z M6.6,12 C3.61766235,12 1.2,9.58233765 1.2,6.6 C1.2,3.61766235 3.61766235,1.2 6.6,1.2 C9.58233765,1.2 12,3.61766235 12,6.6 C12,9.58233765 9.58233765,12 6.6,12 Z" id="Shape"></path>
                    </g>
                </g>
            </g>
        </g>
    </g>
</svg>