<?xml version="1.0" encoding="UTF-8"?>
<svg width="15px" height="13px" viewBox="0 0 15 13" version="1.1" xmlns="http://www.w3.org/2000/svg" xmlns:xlink="http://www.w3.org/1999/xlink">
    <!-- Generator: sketchtool 57.1 (101010) - https://sketch.com -->
    <title>6861CA36-E529-4C4B-94B6-FAE8FAE61629</title>
    <desc>Created with sketchtool.</desc>
    <g id="Page-1" stroke="none" stroke-width="1" fill="none" fill-rule="evenodd">
        <g id="2.-Overview-Theme---Side-Nav-Closed-1" transform="translate(-21.000000, -261.000000)" fill="#FFFFFF" fill-rule="nonzero">
            <g id="Side-Nav">
                <g id="Icons" transform="translate(20.000000, 78.000000)">
                    <g id="head-office" transform="translate(1.000000, 183.000000)">
                        <path d="M12.24,2.16 L10.08,2.16 L10.08,1.44 C10.08,0.64470996 9.43529004,0 8.64,0 L5.76,0 C4.96470996,0 4.32,0.64470996 4.32,1.44 L4.32,2.16 L2.16,2.16 C0.96706494,2.16 -4.4408921e-16,3.12706494 -4.4408921e-16,4.32 L-4.4408921e-16,10.8 C-4.4408921e-16,11.9929351 0.96706494,12.96 2.16,12.96 L12.24,12.96 C13.4329351,12.96 14.4,11.9929351 14.4,10.8 L14.4,4.32 C14.4,3.12706494 13.4329351,2.16 12.24,2.16 Z M5.76,1.44 L8.64,1.44 L8.64,2.16 L5.76,2.16 L5.76,1.44 Z M12.96,10.8 C12.96,11.197645 12.637645,11.52 12.24,11.52 L2.16,11.52 C1.76235498,11.52 1.44,11.197645 1.44,10.8 L1.44,6.7608 L4.8096,7.92 C4.88604973,7.93037315 4.96355027,7.93037315 5.04,7.92 L9.36,7.92 C9.43808175,7.91855626 9.51559955,7.9064441 9.5904,7.884 L12.96,6.7608 L12.96,10.8 Z M12.96,5.2416 L9.2448,6.48 L5.1552,6.48 L1.44,5.2416 L1.44,4.32 C1.44,3.92235498 1.76235498,3.6 2.16,3.6 L12.24,3.6 C12.637645,3.6 12.96,3.92235498 12.96,4.32 L12.96,5.2416 Z" id="Shape"></path>
                    </g>
                </g>
            </g>
        </g>
    </g>
</svg>