<?xml version="1.0" encoding="UTF-8"?>
<svg width="16px" height="12px" viewBox="0 0 16 12" version="1.1" xmlns="http://www.w3.org/2000/svg" xmlns:xlink="http://www.w3.org/1999/xlink">
    <!-- Generator: sketchtool 57.1 (101010) - https://sketch.com -->
    <title>F42BEAE2-A417-40A2-88F4-9DD06A0C7460</title>
    <desc>Created with sketchtool.</desc>
    <g id="Page-1" stroke="none" stroke-width="1" fill="none" fill-rule="evenodd">
        <g id="2.-Overview-Theme---Side-Nav-Closed-1" transform="translate(-20.000000, -27.000000)" fill="#FFFFFF" fill-rule="nonzero">
            <g id="Header">
                <g id="Menu-Icon" transform="translate(20.000000, 27.000000)">
                    <path d="M15.2,9.6 C15.6418278,9.6 16,9.9581722 16,10.4 C16,10.8418278 15.6418278,11.2 15.2,11.2 L15.2,11.2 L0.8,11.2 C0.3581722,11.2 0,10.8418278 0,10.4 C0,9.9581722 0.3581722,9.6 0.8,9.6 L0.8,9.6 Z M0.8,4.8 L15.2,4.8 C15.6418278,4.8 16,5.1581722 16,5.6 C16,6.00784105 15.6948119,6.34440158 15.3003503,6.39376686 L15.2,6.4 L0.8,6.4 C0.3581722,6.4 0,6.0418278 0,5.6 C0,5.19215895 0.305188147,4.85559842 0.6996497,4.80623314 L0.8,4.8 L15.2,4.8 Z M0.8,2.30926389e-14 L15.2,2.30926389e-14 C15.6418278,2.30926389e-14 16,0.3581722 16,0.8 C16,1.20784105 15.6948119,1.54440158 15.3003503,1.59376686 L15.2,1.6 L0.8,1.6 C0.3581722,1.6 0,1.2418278 0,0.8 C0,0.392158954 0.305188147,0.055598419 0.6996497,0.00623313573 L0.8,2.30926389e-14 L15.2,2.30926389e-14 Z" id="Combined-Shape"></path>
                </g>
            </g>
        </g>
    </g>
</svg>