<?xml version="1.0" encoding="UTF-8"?>
<svg width="15px" height="15px" viewBox="0 0 15 15" version="1.1" xmlns="http://www.w3.org/2000/svg" xmlns:xlink="http://www.w3.org/1999/xlink">
    <!-- Generator: sketchtool 57.1 (101010) - https://sketch.com -->
    <title>D9112C61-90F7-4560-AC4D-301131616228</title>
    <desc>Created with sketchtool.</desc>
    <g id="Page-1" stroke="none" stroke-width="1" fill="none" fill-rule="evenodd" stroke-linecap="round" stroke-linejoin="round">
        <g id="2.-Overview-Theme---Side-Nav-Closed-1" transform="translate(-20.000000, -172.000000)" stroke="#FFFFFF" stroke-width="1.2">
            <g id="Side-Nav">
                <g id="Icons" transform="translate(20.000000, 78.000000)">
                    <g id="Operations-Icon" transform="translate(1.000000, 95.000000)">
                        <circle id="Oval" cx="6.6" cy="6.6" r="1.8"></circle>
                        <path d="M11.04,8.4 C10.8765921,8.77025404 10.9550005,9.20268796 11.238,9.492 L11.274,9.528 C11.4993325,9.75308191 11.625944,10.0585089 11.625944,10.377 C11.625944,10.6954911 11.4993325,11.0009181 11.274,11.226 C11.0489181,11.4513325 10.7434911,11.577944 10.425,11.577944 C10.1065089,11.577944 9.80108191,11.4513325 9.576,11.226 L9.54,11.19 C9.25068796,10.9070005 8.81825404,10.8285921 8.448,10.992 C8.08531764,11.147441 7.84957374,11.5034142 7.848,11.898 L7.848,12 C7.848,12.6627417 7.3107417,13.2 6.648,13.2 C5.9852583,13.2 5.448,12.6627417 5.448,12 L5.448,11.946 C5.43849396,11.5396025 5.18152306,11.1803191 4.8,11.04 C4.42974596,10.8765921 3.99731204,10.9550005 3.708,11.238 L3.672,11.274 C3.44691809,11.4993325 3.1414911,11.625944 2.823,11.625944 C2.5045089,11.625944 2.19908191,11.4993325 1.974,11.274 C1.74866755,11.0489181 1.62205601,10.7434911 1.62205601,10.425 C1.62205601,10.1065089 1.74866755,9.80108191 1.974,9.576 L2.01,9.54 C2.29299953,9.25068796 2.37140787,8.81825404 2.208,8.448 C2.05255903,8.08531764 1.69658575,7.84957374 1.302,7.848 L1.2,7.848 C0.5372583,7.848 0,7.3107417 0,6.648 C0,5.9852583 0.5372583,5.448 1.2,5.448 L1.254,5.448 C1.66039751,5.43849396 2.0196809,5.18152306 2.16,4.8 C2.32340787,4.42974596 2.24499953,3.99731204 1.962,3.708 L1.926,3.672 C1.70066755,3.44691809 1.57405601,3.1414911 1.57405601,2.823 C1.57405601,2.5045089 1.70066755,2.19908191 1.926,1.974 C2.15108191,1.74866755 2.4565089,1.62205601 2.775,1.62205601 C3.0934911,1.62205601 3.39891809,1.74866755 3.624,1.974 L3.66,2.01 C3.94931204,2.29299953 4.38174596,2.37140787 4.752,2.208 L4.8,2.208 C5.16268236,2.05255903 5.39842626,1.69658575 5.4,1.302 L5.4,1.2 C5.4,0.5372583 5.9372583,0 6.6,0 C7.2627417,0 7.8,0.5372583 7.8,1.2 L7.8,1.254 C7.80157374,1.64858575 8.03731764,2.00455903 8.4,2.16 C8.77025404,2.32340787 9.20268796,2.24499953 9.492,1.962 L9.528,1.926 C9.75308191,1.70066755 10.0585089,1.57405601 10.377,1.57405601 C10.6954911,1.57405601 11.0009181,1.70066755 11.226,1.926 C11.4513325,2.15108191 11.577944,2.4565089 11.577944,2.775 C11.577944,3.0934911 11.4513325,3.39891809 11.226,3.624 L11.19,3.66 C10.9070005,3.94931204 10.8285921,4.38174596 10.992,4.752 L10.992,4.8 C11.147441,5.16268236 11.5034142,5.39842626 11.898,5.4 L12,5.4 C12.6627417,5.4 13.2,5.9372583 13.2,6.6 C13.2,7.2627417 12.6627417,7.8 12,7.8 L11.946,7.8 C11.5514142,7.80157374 11.195441,8.03731764 11.04,8.4 Z" id="Path"></path>
                    </g>
                </g>
            </g>
        </g>
    </g>
</svg>