<?xml version="1.0" encoding="UTF-8"?>
<svg width="196px" height="39px" viewBox="0 0 196 39" version="1.1" xmlns="http://www.w3.org/2000/svg" xmlns:xlink="http://www.w3.org/1999/xlink">
    <!-- Generator: Sketch 63.1 (92452) - https://sketch.com -->
    <title>Chatime_Logo@1.5x</title>
    <desc>Created with Sketch.</desc>
    <g id="Page-1" stroke="none" stroke-width="1" fill="none" fill-rule="evenodd">
        <g id="1.1-Login-Page" transform="translate(-71.000000, -191.000000)" fill-rule="nonzero">
            <g id="Chatime_Logo" transform="translate(71.000000, 191.000000)">
                <path d="M48.0289789,5.34421516 C44.3569859,6.70612806 41.5986813,5.55108801 39.667868,5.37869397 C39.1679253,5.32697576 38.1163217,5.18906053 36.806127,5.32697576 C36.2544661,5.36145457 35.6855658,5.44765159 35.1166654,5.56832741 C30.7550963,6.447537 28.3243404,9.94713597 26.8762305,13.6708472 C26.8934699,13.4812137 26.9107093,13.3088197 26.9107093,13.1191863 C27.1520609,8.2749138 25.5143176,1.12056124 19.5494839,0.310309268 C15.0672389,-0.293069864 11.5848793,0.655097343 7.77497109,3.70647181 C7.75773169,3.72371121 7.72325288,3.74095061 7.70601348,3.77542942 C7.63705586,3.82714763 7.56809825,3.87886584 7.49914063,3.94782346 L7.49914063,3.96506286 C2.86174102,7.93012573 2.36179831,12.9467922 4.39604796,19.8253143 C5.01666649,22.118155 6.36133998,24.2041229 6.36133998,24.2041229 C6.34410058,24.1351653 6.34410058,24.0662076 6.32686118,23.99725 L6.32686118,23.99725 C5.22353934,18.2048104 6.17170654,12.0503432 12.3606525,6.93024031 C18.1013739,2.18940428 23.1525192,4.30985094 24.8764596,8.7403777 C25.3246841,10.0160936 25.6522328,11.6710763 25.6522328,13.3777773 C25.617754,15.2223935 25.4625993,16.1188425 24.3592775,18.6702743 L24.3592775,18.6702743 C23.9800106,19.5322445 23.6007437,20.3942146 23.2559557,21.221706 C22.5663795,22.8249706 22.118155,23.9800106 21.8078457,24.8592202 L21.8078457,24.8592202 L21.8078457,24.8592202 C21.7906063,24.9109384 21.7733669,24.9626566 21.7561275,25.0143748 C21.6526911,25.3074447 21.7561275,25.6867116 22.0664368,25.7384298 C22.4112249,25.790148 22.7042947,25.617754 22.7904918,25.4281205 C22.84221,25.3074447 22.8766888,25.1867689 22.928407,25.0660931 C22.9456464,25.0316142 22.9456464,25.0143748 22.9628858,24.979896 C23.9627712,22.4112249 25.4453599,18.8081895 26.7383152,16.3601942 C26.9451881,15.9809273 27.1348215,15.6361392 27.3244549,15.3258299 C27.3416944,15.2913511 27.3589338,15.2568723 27.3934126,15.2223935 C27.5313278,14.9810419 27.6864824,14.774169 27.8243977,14.5845356 L27.8243977,14.5845356 L27.8243977,14.5845356 C28.0140311,14.3431839 28.1864251,14.1190717 28.3588192,13.9466776 C28.3760586,13.9294382 28.3760586,13.9294382 28.393298,13.9121988 C28.4105374,13.9121988 28.4105374,13.8949594 28.4277768,13.87772 C28.4450162,13.8604806 28.479495,13.8260018 28.4967344,13.8087624 C29.0483953,13.2915803 29.5828168,13.1191863 30.4792658,13.0157498 C30.5137446,13.0157498 30.5482235,12.9985104 30.5827023,12.9985104 L30.5827023,12.9985104 L30.5827023,12.9985104 C31.5136301,12.895074 32.4445579,13.067468 33.944386,13.0847074 C34.4615681,13.1019469 35.2201019,13.0157498 35.9269174,12.895074 C36.4096207,12.808877 36.9095634,12.6882012 37.4784638,12.5158071 L37.4784638,12.5158071 C41.7883147,11.2745701 44.4776617,9.03344757 48.0289789,5.34421516 Z" id="Path" fill="#72BF44"></path>
                <g id="Group" transform="translate(0.000000, 5.344215)" fill="#00B48D">
                    <g id="Path">
                        <path d="M9.06792637,26.7210758 C8.51626545,24.9109384 7.89564692,23.4628285 6.99919792,21.3596213 C7.60257706,23.6697014 6.30962177,25.2384871 5.25801814,26.6348788 C4.1202175,28.1519463 4.80979365,30.4620264 6.67164925,30.5482235 C8.65418068,30.6516599 9.74026312,28.9277195 9.06792637,26.7210758 Z"></path>
                        <path d="M4.41328736,14.4810992 C2.62038937,8.41282903 2.79278341,3.77542942 6.05103072,0.0517182113 C2.81002281,0.724054958 -0.620618535,3.56855658 0.27583046,9.32651743 C0.55166092,11.0849366 1.43087051,12.636483 2.43075593,14.1363111 C3.671993,15.8774909 5.24077874,17.1704461 6.03379131,18.3254862 C5.60280622,17.5324736 4.84427245,16.0671243 4.41328736,14.4810992 Z"></path>
                    </g>
                </g>
                <g id="Group" transform="translate(39.305841, 4.999427)" fill="#FFFFFF">
                    <path d="M27.1348215,0.155154634 C29.1173529,0.172394038 31.255039,1.10332184 32.6169519,2.56867116 C34.1857376,4.43052676 34.2202164,6.36133998 33.3237675,7.72325288 C33.220331,7.86116811 33.0996552,7.99908334 32.9789794,8.15423798 C31.5998271,9.80922074 30.7550963,8.87829293 30.4275476,8.08528036 C30.4275476,8.08528036 29.8586473,6.46477641 28.7553255,5.80967906 C28.6863678,5.77520026 28.6174102,5.74072145 28.5484526,5.70624264 C28.5484526,5.70624264 28.5312132,5.68900324 28.5139738,5.68900324 C25.6522328,4.63739961 20.3080176,7.13711315 16.4463912,10.2402058 C9.27479922,16.3774336 6.67164925,21.6354517 6.22342475,24.9454172 C5.43041218,30.8068145 18.359965,28.4450162 24.3592775,25.0316142 C24.8764596,24.7557838 25.3419235,24.4971927 25.7729086,24.2558411 C27.3416944,23.2904345 27.7209612,23.0663222 28.3243404,22.8939282 C29.0828741,22.6698159 29.7034927,22.9628858 29.9103655,24.4627139 C29.9276049,24.5661503 29.9448443,24.6523474 29.9448443,24.7557838 C29.9620837,24.807502 29.9620837,24.8764596 29.9620837,24.9454172 C29.8758867,26.7038364 28.8932407,27.2382579 27.6520036,28.1519463 C23.4973073,30.8240539 17.6703888,34.1340194 9.15412339,33.9961042 C0.189633441,33.8409496 -3.29272612,26.1004573 3.87886584,15.5671816 C9.36099624,7.53361944 19.1184988,0.517182113 26.514203,0.189633441 L26.514203,0.189633441 L26.514203,0.172394038 C26.7210758,0.155154634 26.9279487,0.155154634 27.1348215,0.155154634 Z M57.5106509,23.0663222 C60.6999406,16.7739399 67.5267445,13.8432412 71.1642587,14.3949021 C73.7329299,14.7914084 74.9569275,16.3257154 74.4569848,19.1529776 C74.1294361,20.7390027 73.4743388,21.6871699 72.0262289,21.6354517 C68.8886574,21.4975365 71.4056103,18.2048104 69.3024031,18.3427256 C68.4749117,18.3944438 67.1129988,18.8943865 64.8546369,20.8424391 C63.5961604,21.9285216 62.0446141,24.0144894 61.2171227,25.5487964 C60.5620254,26.7900334 60.5792648,27.410652 61.2171227,27.5658066 C61.5619108,27.6175248 62.0101353,27.583046 62.510078,27.4796096 C63.7168363,27.2210185 65.199425,26.6176394 66.4234227,25.9453026 L66.4234227,25.9453026 L66.6130561,25.8418662 C66.6992531,25.790148 66.8026895,25.7384298 66.8888866,25.6867116 C66.992323,25.617754 67.07852,25.5660358 67.164717,25.5143176 L67.164717,25.5143176 L67.5784627,25.2384871 C67.802575,25.0660931 68.0094478,24.9109384 68.2163207,24.7730232 C68.9748544,24.2041229 69.4920365,23.7041802 69.9747398,23.4111103 C70.8194706,22.8939282 71.7676378,22.6525765 72.715805,23.3249133 C73.3709024,23.8420954 73.0950719,25.9970209 73.5777752,27.3761732 C73.5950146,27.4623702 73.6294934,27.5485672 73.6639722,27.6175248 C73.6639722,27.6347642 73.6812116,27.669243 73.698451,27.7037218 C73.9570421,28.2381433 74.3190696,28.7208467 74.9052093,29.0656347 C76.0774888,29.8241685 77.6290351,28.9277195 77.6462745,30.186196 C77.6462745,31.8411787 76.0602494,32.5652337 74.336309,32.3411214 C71.9400319,32.065291 70.2333309,29.8758867 69.8885428,28.5829314 C65.7683253,31.427433 61.0619681,32.5997125 58.1657483,31.5308695 C55.4764013,30.5482235 55.3902043,26.7900334 57.5106509,23.0663222 Z M152.189456,14.4121415 C156.964771,14.3949021 157.981896,18.4289226 153.034187,22.9456464 C148.517463,27.0658639 142.742263,26.8072728 141.190717,26.7038364 L141.190717,26.7038364 L141.10452,26.7038364 C141.10452,26.772794 141.121759,26.8245122 141.121759,26.8934699 C141.190717,27.8933553 141.794096,28.3760586 142.294039,28.565692 C143.035333,28.8415225 145.414371,29.4966198 148.655379,28.0829887 C149.120842,27.8933553 149.500109,27.7037218 149.913855,27.4451308 C150.137967,27.3072155 150.396558,27.1520609 150.672389,26.9796669 C151.999823,25.9280632 152.413569,26.4624848 152.585963,27.0831033 C152.861793,28.0657493 152.37909,29.3069864 151.51712,29.9965625 C150.465516,30.7550963 147.638254,32.4445579 143.276685,32.3411214 L143.276685,32.3411214 L143.069812,32.3411214 C142.862939,32.3411214 142.638827,32.323882 142.431954,32.3066426 C139.466776,32.0825304 137.501484,30.9102509 136.967063,28.7898043 C136.949823,28.7725649 136.949823,28.7553255 136.949823,28.7380861 C136.915345,28.6346496 136.898105,28.5139738 136.880866,28.393298 C136.863626,28.307101 136.863626,28.2209039 136.846387,28.1174675 C136.829148,27.9967917 136.811908,27.8761159 136.811908,27.75544 C136.708472,25.8935844 137.398048,23.7903772 138.311736,22.2733096 C141.604462,17.0325309 147.190029,14.4293809 152.189456,14.4121415 Z M42.2365392,2.32731951 C43.6156915,0.172394038 45.5120259,0.206872845 46.667066,0.379266883 C47.822106,0.55166092 48.9771461,1.48258872 47.8393454,3.24100791 C45.3223925,6.77508567 40.1505713,16.0671243 37.5646608,23.99725 C40.219529,21.5837335 43.4260581,17.0670097 48.8219914,17.6186706 C53.1490818,18.0496557 53.7007427,23.4111103 52.9766877,30.4620264 C52.8387725,31.5481089 52.0974781,32.0825304 51.0631139,32.2032062 C49.3908918,32.3928397 49.3736523,31.9101363 49.2357371,30.3930688 C49.0288643,26.1349361 49.1840189,23.2042375 47.3049239,22.4801825 C45.4258289,21.7388881 42.357215,24.9971354 37.8922094,29.375944 C36.3751419,30.8412933 35.4269747,31.9273758 33.3237675,31.5653483 C30.8585327,31.1343632 31.6687847,26.2211331 35.995875,15.1189571 C38.1335611,9.6540661 39.8747409,6.01655191 42.2365392,2.32731951 Z M99.9368236,14.7396902 C101.1953,13.0502286 102.402058,13.2571015 103.763971,14.4983386 C104.556984,15.2051541 105.022448,16.2222789 103.143353,19.1357382 C101.264258,22.0836762 98.5921501,28.4622556 98.2301226,29.7724503 C97.4888282,31.7894605 96.2993094,32.2204456 95.1270299,32.1170092 C93.7478776,31.9963334 93.765117,31.1171238 94.0064687,29.2552682 C94.4719326,25.8418662 98.2128832,17.0670097 99.9368236,14.7396902 Z M91.8170644,2.06872845 C92.6790346,0.775773169 94.1099051,0.13791523 95.6614514,0.362027479 C97.4543494,0.620618535 97.8508557,1.56878574 96.3855064,3.63751419 C95.3511422,5.12010291 93.7133988,7.94736513 92.1446131,10.843585 C93.5237654,10.7746273 94.9029177,10.7401485 96.2303517,10.7746273 C97.8680951,10.7918667 98.3852772,11.0676972 98.1439256,11.9813856 C97.8508557,13.0157498 97.4888282,13.87772 95.9890001,14.0845929 C95.2132269,14.1880293 92.8341892,14.5500568 89.8862512,15.0844783 C89.282872,16.2567577 88.7484505,17.3083614 88.3691836,18.1186133 C86.6452433,22.031958 84.9902605,25.9453026 85.1281757,27.3244549 C85.3005698,29.0311559 87.3692982,28.1691857 87.8175227,27.9105947 C88.9553234,27.2727367 89.6104207,26.428006 90.2655181,28.307101 C90.6275455,29.462141 89.282872,30.4965052 89.282872,30.4965052 C85.7487943,33.3582463 80.870043,32.2894032 80.4907761,28.4450162 C80.2321851,25.7384298 81.5596192,21.8423246 84.0938115,16.2395183 C83.0766867,16.4636306 82.0595619,16.7049822 81.0941553,16.9463339 C78.6978781,17.5324736 76.7498255,17.9462193 77.4911199,15.0499995 C77.9393444,13.3432985 78.6116811,12.6882012 80.2149457,12.3261737 C82.1974771,11.9641462 84.2834449,11.6365975 86.4038916,11.3607671 C88.3691836,7.51638004 90.4551515,4.1202175 91.8170644,2.06872845 Z M111.142436,14.6362538 C112.711222,14.6362538 113.814544,15.2913511 112.538828,17.6014312 C111.88373,18.7909501 110.763169,20.7045239 109.901199,22.2388308 C114.245529,17.5841918 117.607212,15.2741117 120.641347,14.9982813 C122.554921,14.7569296 125.227029,16.0326455 123.054864,21.8423246 C125.002917,19.9287507 128.037052,15.9464485 131.881439,16.1705607 C134.553546,16.3257154 135.518953,18.7392319 135.03625,21.6182123 C134.622504,24.2213623 133.674337,27.2899761 132.41586,29.8931261 C131.381496,32.0480516 129.898907,32.0825304 129.019698,31.8584181 C128.140488,31.6343059 127.278518,31.168842 128.002573,29.6172956 C129.381725,26.9279487 130.381611,23.7214196 130.588483,22.9628858 C131.27806,20.3769752 130.864314,19.170217 128.536994,21.0665514 C125.76145,23.3249133 122.692837,27.6175248 121.537796,29.3242258 C120.382756,31.0309268 119.69318,31.3757148 118.676055,31.3067572 C117.831325,31.2377996 116.676285,30.7895751 117.072791,29.3242258 C118.848449,22.1353944 120.106926,20.152863 119.313913,19.8080749 C117.934761,19.3598504 115.400569,21.5147759 112.400912,24.7730232 C109.797763,27.7899188 108.522047,29.5138592 107.694555,30.5137446 C107.642837,30.5654629 107.591119,30.6344205 107.539401,30.6861387 C107.539401,30.7033781 107.522161,30.7206175 107.504922,30.7378569 C106.625712,31.7377423 105.660306,32.0308122 104.798335,31.8756575 C103.867408,31.7205029 103.22955,30.9792085 103.660535,28.2553828 C103.660535,28.2381433 103.677774,28.2036645 103.677774,28.1864251 C103.867408,26.9796669 104.212196,25.6005146 104.66042,24.2386017 C106.005094,20.1011448 107.022218,18.2220498 108.315174,16.1360819 C108.815116,15.2223935 109.711565,14.6362538 111.142436,14.6362538 Z M151.293007,17.9462193 C150.620671,17.63591 145.655722,18.2220498 142.24232,23.5662649 C149.879376,22.6180977 152.241175,18.4806408 151.293007,17.9462193 Z M103.315747,6.99919792 C104.350111,5.48213039 106.160248,5.29249695 107.608358,5.87863668 C109.159905,6.51649462 109.056468,8.67142009 108.022104,10.1884876 C106.98774,11.7055551 105.143123,12.1537796 103.79845,11.3435277 C102.402058,10.5160363 102.281382,8.51626545 103.315747,6.99919792 Z" id="Combined-Shape"></path>
                </g>
            </g>
        </g>
    </g>
</svg>