<?xml version="1.0" encoding="UTF-8"?>
<svg width="10px" height="11px" viewBox="0 0 10 11" version="1.1" xmlns="http://www.w3.org/2000/svg" xmlns:xlink="http://www.w3.org/1999/xlink">
    <!-- Generator: sketchtool 57.1 (101010) - https://sketch.com -->
    <title>023D8C07-C817-4884-9EEB-9DBC0B8C42CB</title>
    <desc>Created with sketchtool.</desc>
    <g id="Page-1" stroke="none" stroke-width="1" fill="none" fill-rule="evenodd">
        <g id="2.-Overview-Theme---Side-Nav-Closed-1" transform="translate(-1240.000000, -28.000000)" fill="#EAEAEA" fill-rule="nonzero">
            <g id="Header">
                <g id="Group-8" transform="translate(1073.000000, 22.000000)">
                    <g id="Download" transform="translate(160.000000, 0.000000)">
                        <g id="Download-Document" transform="translate(7.000000, 6.000000)">
                            <path d="M2.63157895,3.15789474 C2.34090276,3.15789474 2.10526316,3.39353434 2.10526316,3.68421053 C2.10526316,3.97488671 2.34090276,4.21052632 2.63157895,4.21052632 L3.15789474,4.21052632 C3.44857092,4.21052632 3.68421053,3.97488671 3.68421053,3.68421053 C3.68421053,3.39353434 3.44857092,3.15789474 3.15789474,3.15789474 L2.63157895,3.15789474 Z M5.26315789,9.47368421 L1.57894737,9.47368421 C1.28827118,9.47368421 1.05263158,9.23804461 1.05263158,8.94736842 L1.05263158,1.57894737 C1.05263158,1.28827118 1.28827118,1.05263158 1.57894737,1.05263158 L4.21052632,1.05263158 L4.21052632,2.63157895 C4.21052632,3.5036075 4.91744513,4.21052632 5.78947368,4.21052632 L7.36842105,4.21052632 L7.36842105,5.26315789 C7.36842105,5.55383408 7.60406066,5.78947368 7.89473684,5.78947368 C8.18541303,5.78947368 8.42105263,5.55383408 8.42105263,5.26315789 L8.42105263,3.68421053 C8.42105263,3.68421053 8.42105263,3.68421053 8.42105263,3.65263158 C8.41557037,3.60428152 8.40498507,3.55664767 8.38947368,3.51052632 L8.38947368,3.46315789 C8.36416785,3.40904198 8.33041252,3.35929728 8.28947368,3.31578947 L8.28947368,3.31578947 L5.13157895,0.157894737 L5.13157895,0.157894737 C5.08807114,0.116955897 5.03832645,0.083200569 4.98421053,0.0578947368 C4.96679902,0.0548471138 4.94899045,0.0548471138 4.93157895,0.0578947368 C4.88040211,0.0305279738 4.82540134,0.0110115731 4.76842105,0 L1.57894737,0 C0.706918816,0 0,0.706918816 0,1.57894737 L0,8.94736842 C0,9.81939697 0.706918816,10.5263158 1.57894737,10.5263158 L5.26315789,10.5263158 C5.55383408,10.5263158 5.78947368,10.2906762 5.78947368,10 C5.78947368,9.70932382 5.55383408,9.47368421 5.26315789,9.47368421 Z M5.26315789,1.79473684 L6.62631579,3.15789474 L5.78947368,3.15789474 C5.4987975,3.15789474 5.26315789,2.92225513 5.26315789,2.63157895 L5.26315789,1.79473684 Z M5.78947368,5.26315789 L2.63157895,5.26315789 C2.34090276,5.26315789 2.10526316,5.4987975 2.10526316,5.78947368 C2.10526316,6.08014987 2.34090276,6.31578947 2.63157895,6.31578947 L5.78947368,6.31578947 C6.08014987,6.31578947 6.31578947,6.08014987 6.31578947,5.78947368 C6.31578947,5.4987975 6.08014987,5.26315789 5.78947368,5.26315789 Z M9.32105263,8.57368421 C9.22222811,8.47404597 9.08770397,8.41800088 8.94736842,8.41800088 C8.80703288,8.41800088 8.67250874,8.47404597 8.57368421,8.57368421 L8.42105263,8.73157895 L8.42105263,7.36842105 C8.42105263,7.07774487 8.18541303,6.84210526 7.89473684,6.84210526 C7.60406066,6.84210526 7.36842105,7.07774487 7.36842105,7.36842105 L7.36842105,8.73157895 L7.21578947,8.57368421 C7.00940938,8.36730412 6.67480114,8.36730412 6.46842105,8.57368421 C6.26204096,8.7800643 6.26204096,9.11467254 6.46842105,9.32105263 L7.52105263,10.3736842 C7.57110722,10.4216003 7.63013089,10.4591608 7.69473684,10.4842105 C7.82212625,10.5405141 7.96734743,10.5405141 8.09473684,10.4842105 C8.1593428,10.4591608 8.21836647,10.4216003 8.26842105,10.3736842 L9.32105263,9.32105263 C9.42069087,9.22222811 9.47673596,9.08770397 9.47673596,8.94736842 C9.47673596,8.80703288 9.42069087,8.67250874 9.32105263,8.57368421 Z M4.73684211,8.42105263 C5.02751829,8.42105263 5.26315789,8.18541303 5.26315789,7.89473684 C5.26315789,7.60406066 5.02751829,7.36842105 4.73684211,7.36842105 L2.63157895,7.36842105 C2.34090276,7.36842105 2.10526316,7.60406066 2.10526316,7.89473684 C2.10526316,8.18541303 2.34090276,8.42105263 2.63157895,8.42105263 L4.73684211,8.42105263 Z" id="Shape"></path>
                        </g>
                    </g>
                </g>
            </g>
        </g>
    </g>
</svg>