<?xml version="1.0" encoding="UTF-8"?>
<svg width="16px" height="16px" viewBox="0 0 16 16" version="1.1" xmlns="http://www.w3.org/2000/svg" xmlns:xlink="http://www.w3.org/1999/xlink">
    <!-- Generator: sketchtool 57.1 (101010) - https://sketch.com -->
    <title>4ACE7F72-46E7-4774-9FA0-8AF36502DE1B</title>
    <desc>Created with sketchtool.</desc>
    <g id="Page-1" stroke="none" stroke-width="1" fill="none" fill-rule="evenodd">
        <g id="2.-Overview-Theme---Side-Nav-Closed-1" transform="translate(-20.000000, -78.000000)" fill="#FFFFFF" fill-rule="nonzero">
            <g id="Side-Nav">
                <g id="Icons" transform="translate(20.000000, 78.000000)">
                    <g id="Quick-Stats-icon">
                        <path d="M9.36,5.76 L6.48,5.76 C6.08235498,5.76 5.76,6.08235498 5.76,6.48 L5.76,15.12 C5.76,15.517645 6.08235498,15.84 6.48,15.84 L9.36,15.84 C9.75764502,15.84 10.08,15.517645 10.08,15.12 L10.08,6.48 C10.08,6.08235498 9.75764502,5.76 9.36,5.76 Z M8.64,14.4 L7.2,14.4 L7.2,7.2 L8.64,7.2 L8.64,14.4 Z M15.12,7.28306304e-14 L12.24,7.28306304e-14 C11.842355,7.28306304e-14 11.52,0.32235498 11.52,0.72 L11.52,15.12 C11.52,15.517645 11.842355,15.84 12.24,15.84 L15.12,15.84 C15.517645,15.84 15.84,15.517645 15.84,15.12 L15.84,0.72 C15.84,0.32235498 15.517645,7.28306304e-14 15.12,7.28306304e-14 Z M14.4,14.4 L12.96,14.4 L12.96,1.44 L14.4,1.44 L14.4,14.4 Z M3.6,10.08 L0.72,10.08 C0.32235498,10.08 7.28306304e-14,10.402355 7.28306304e-14,10.8 L7.28306304e-14,15.12 C7.28306304e-14,15.517645 0.32235498,15.84 0.72,15.84 L3.6,15.84 C3.99764502,15.84 4.32,15.517645 4.32,15.12 L4.32,10.8 C4.32,10.402355 3.99764502,10.08 3.6,10.08 Z M2.88,14.4 L1.44,14.4 L1.44,11.52 L2.88,11.52 L2.88,14.4 Z" id="Shape"></path>
                    </g>
                </g>
            </g>
        </g>
    </g>
</svg>