<?xml version="1.0" encoding="UTF-8"?>
<svg width="15px" height="15px" viewBox="0 0 15 15" version="1.1" xmlns="http://www.w3.org/2000/svg" xmlns:xlink="http://www.w3.org/1999/xlink">
    <!-- Generator: sketchtool 57.1 (101010) - https://sketch.com -->
    <title>E8693489-632A-49C6-99FA-0EEE2077E63D</title>
    <desc>Created with sketchtool.</desc>
    <g id="Page-1" stroke="none" stroke-width="1" fill="none" fill-rule="evenodd">
        <g id="2.-Overview-Theme---Side-Nav-Closed-1" transform="translate(-21.000000, -127.000000)" fill="#FFFFFF" fill-rule="nonzero">
            <g id="Side-Nav">
                <g id="Icons" transform="translate(20.000000, 78.000000)">
                    <g id="scoreboard-icon" transform="translate(1.000000, 49.000000)">
                        <path d="M6.84,12.96 L2.52,12.96 C2.12235498,12.96 1.8,12.637645 1.8,12.24 L1.8,2.16 C1.8,1.76235498 2.12235498,1.44 2.52,1.44 L6.12,1.44 L6.12,3.6 C6.12,4.79293506 7.08706494,5.76 8.28,5.76 L10.44,5.76 L10.44,9.36 C10.44,9.75764502 10.762355,10.08 11.16,10.08 C11.557645,10.08 11.88,9.75764502 11.88,9.36 L11.88,5.04 C11.88,5.04 11.88,5.04 11.88,4.9968 C11.8725003,4.93065712 11.8580196,4.86549402 11.8368,4.8024 L11.8368,4.7376 C11.8021816,4.66356942 11.7560043,4.59551868 11.7,4.536 L11.7,4.536 L7.38,0.216 L7.38,0.216 C7.32048132,0.159995668 7.25243058,0.113818378 7.1784,0.0792 C7.15458106,0.0750308517 7.13021894,0.0750308517 7.1064,0.0792 C7.03639009,0.0417622682 6.96114904,0.015063832 6.8832,9.05941988e-14 L2.52,9.05941988e-14 C1.32706494,9.05941988e-14 0.36,0.96706494 0.36,2.16 L0.36,12.24 C0.36,13.4329351 1.32706494,14.4 2.52,14.4 L6.84,14.4 C7.23764502,14.4 7.56,14.077645 7.56,13.68 C7.56,13.282355 7.23764502,12.96 6.84,12.96 Z M7.56,2.4552 L9.4248,4.32 L8.28,4.32 C7.88235498,4.32 7.56,3.99764502 7.56,3.6 L7.56,2.4552 Z M3.96,8.64 L8.28,8.64 C8.67764502,8.64 9,8.31764502 9,7.92 C9,7.52235498 8.67764502,7.2 8.28,7.2 L3.96,7.2 C3.56235498,7.2 3.24,7.52235498 3.24,7.92 C3.24,8.31764502 3.56235498,8.64 3.96,8.64 Z M6.84,10.08 L3.96,10.08 C3.56235498,10.08 3.24,10.402355 3.24,10.8 C3.24,11.197645 3.56235498,11.52 3.96,11.52 L6.84,11.52 C7.23764502,11.52 7.56,11.197645 7.56,10.8 C7.56,10.402355 7.23764502,10.08 6.84,10.08 Z M3.96,5.76 L4.68,5.76 C5.07764502,5.76 5.4,5.43764502 5.4,5.04 C5.4,4.64235498 5.07764502,4.32 4.68,4.32 L3.96,4.32 C3.56235498,4.32 3.24,4.64235498 3.24,5.04 C3.24,5.43764502 3.56235498,5.76 3.96,5.76 Z M13.8312,10.2888 C13.696008,10.1524949 13.511979,10.0758252 13.32,10.0758252 C13.128021,10.0758252 12.943992,10.1524949 12.8088,10.2888 L10.44,12.6648 L9.5112,11.7288 C9.32856583,11.5461658 9.06237073,11.4748391 8.81288781,11.5416878 C8.5634049,11.6085366 8.36853656,11.8034049 8.30168781,12.0528878 C8.23483907,12.3023707 8.30616583,12.5685658 8.4888,12.7512 L9.9288,14.1912 C10.063992,14.3275051 10.248021,14.4041748 10.44,14.4041748 C10.631979,14.4041748 10.816008,14.3275051 10.9512,14.1912 L13.8312,11.3112 C13.9675051,11.176008 14.0441748,10.991979 14.0441748,10.8 C14.0441748,10.608021 13.9675051,10.423992 13.8312,10.2888 Z" id="Shape"></path>
                    </g>
                </g>
            </g>
        </g>
    </g>
</svg>