<?xml version="1.0" encoding="UTF-8"?>
<svg width="23px" height="23px" viewBox="0 0 23 23" version="1.1" xmlns="http://www.w3.org/2000/svg" xmlns:xlink="http://www.w3.org/1999/xlink">
    <!-- Generator: sketchtool 57.1 (101010) - https://sketch.com -->
    <title>9D895696-7180-4CF7-91FF-CBCF4BFF4AFD</title>
    <desc>Created with sketchtool.</desc>
    <g id="Page-1" stroke="none" stroke-width="1" fill="none" fill-rule="evenodd" opacity="0.4" stroke-linecap="round" stroke-linejoin="round">
        <g id="1.02-Overview-Page" transform="translate(-364.000000, -361.000000)" stroke="#8E5EAA" stroke-width="1.88571429">
            <g id="Operations" transform="translate(340.000000, 327.000000)">
                <g id="settings" transform="translate(25.000000, 35.000000)">
                    <circle id="Oval" cx="10.3714286" cy="10.3714286" r="2.82857143"></circle>
                    <path d="M17.3485714,13.2 C17.0917876,13.7818278 17.2150007,14.4613668 17.6597143,14.916 L17.7162857,14.9725714 C18.0703796,15.3262716 18.2693406,15.8062283 18.2693406,16.3067143 C18.2693406,16.8072003 18.0703796,17.287157 17.7162857,17.6408571 C17.3625856,17.994951 16.8826289,18.193912 16.3821429,18.193912 C15.8816568,18.193912 15.4017001,17.994951 15.048,17.6408571 L14.9914286,17.5842857 C14.5367954,17.1395722 13.8572564,17.0163591 13.2754286,17.2731429 C12.7054991,17.5174072 12.3350445,18.0767938 12.3325714,18.6968571 L12.3325714,18.8571429 C12.3325714,19.8985941 11.4883084,20.7428571 10.4468571,20.7428571 C9.4054059,20.7428571 8.56114286,19.8985941 8.56114286,18.8571429 L8.56114286,18.7722857 C8.5462048,18.1336611 8.14239338,17.5690729 7.54285714,17.3485714 C6.96102936,17.0917876 6.28149035,17.2150007 5.82685714,17.6597143 L5.77028571,17.7162857 C5.41658557,18.0703796 4.93662887,18.2693406 4.43614286,18.2693406 C3.93565685,18.2693406 3.45570014,18.0703796 3.102,17.7162857 C2.74790615,17.3625856 2.54894516,16.8826289 2.54894516,16.3821429 C2.54894516,15.8816568 2.74790615,15.4017001 3.102,15.048 L3.15857143,14.9914286 C3.60328497,14.5367954 3.72649809,13.8572564 3.46971429,13.2754286 C3.2254499,12.7054991 2.66606333,12.3350445 2.046,12.3325714 L1.88571429,12.3325714 C0.844263043,12.3325714 0,11.4883084 0,10.4468571 C0,9.4054059 0.844263043,8.56114286 1.88571429,8.56114286 L1.97057143,8.56114286 C2.60919608,8.5462048 3.17378426,8.14239338 3.39428571,7.54285714 C3.65106952,6.96102936 3.5278564,6.28149035 3.08314286,5.82685714 L3.02657143,5.77028571 C2.67247758,5.41658557 2.47351659,4.93662887 2.47351659,4.43614286 C2.47351659,3.93565685 2.67247758,3.45570014 3.02657143,3.102 C3.38027157,2.74790615 3.86022828,2.54894516 4.36071429,2.54894516 C4.8612003,2.54894516 5.341157,2.74790615 5.69485714,3.102 L5.75142857,3.15857143 C6.20606178,3.60328497 6.88560079,3.72649809 7.46742857,3.46971429 L7.54285714,3.46971429 C8.11278657,3.2254499 8.48324126,2.66606333 8.48571429,2.046 L8.48571429,1.88571429 C8.48571429,0.844263043 9.32997733,0 10.3714286,0 C11.4128798,0 12.2571429,0.844263043 12.2571429,1.88571429 L12.2571429,1.97057143 C12.2596159,2.59063475 12.6300706,3.15002133 13.2,3.39428571 C13.7818278,3.65106952 14.4613668,3.5278564 14.916,3.08314286 L14.9725714,3.02657143 C15.3262716,2.67247758 15.8062283,2.47351659 16.3067143,2.47351659 C16.8072003,2.47351659 17.287157,2.67247758 17.6408571,3.02657143 C17.994951,3.38027157 18.193912,3.86022828 18.193912,4.36071429 C18.193912,4.8612003 17.994951,5.341157 17.6408571,5.69485714 L17.5842857,5.75142857 C17.1395722,6.20606178 17.0163591,6.88560079 17.2731429,7.46742857 L17.2731429,7.54285714 C17.5174072,8.11278657 18.0767938,8.48324126 18.6968571,8.48571429 L18.8571429,8.48571429 C19.8985941,8.48571429 20.7428571,9.32997733 20.7428571,10.3714286 C20.7428571,11.4128798 19.8985941,12.2571429 18.8571429,12.2571429 L18.7722857,12.2571429 C18.1522224,12.2596159 17.5928358,12.6300706 17.3485714,13.2 Z" id="Path"></path>
                </g>
            </g>
        </g>
    </g>
</svg>