<?xml version="1.0" encoding="UTF-8"?>
<svg width="10px" height="10px" viewBox="0 0 10 10" version="1.1" xmlns="http://www.w3.org/2000/svg" xmlns:xlink="http://www.w3.org/1999/xlink">
    <!-- Generator: sketchtool 57.1 (101010) - https://sketch.com -->
    <title>A4C644E9-40A3-4BC1-8A79-1EEB1F3512D3</title>
    <desc>Created with sketchtool.</desc>
    <g id="Page-1" stroke="none" stroke-width="1" fill="none" fill-rule="evenodd">
        <g id="2.-Overview-Theme---Side-Nav-Closed-1" transform="translate(-1205.000000, -28.000000)" fill="#EAEAEA" fill-rule="nonzero">
            <g id="Header">
                <g id="Group-8" transform="translate(1073.000000, 22.000000)">
                    <g id="Refresh-Icon" transform="translate(126.000000, 0.000000)">
                        <g id="sync" transform="translate(6.000000, 6.000000)">
                            <path d="M8.955,6.755 L6.69,6.755 C6.41385763,6.75500001 6.19000002,6.97885763 6.19000002,7.255 C6.19000002,7.53114237 6.41385763,7.75499999 6.69,7.755 L7.89,7.755 C6.76169986,8.93411371 5.03022283,9.30953713 3.51488831,8.70362325 C1.99955379,8.09770937 1.00427146,6.63197797 1,5 C1,4.72385763 0.776142375,4.5 0.5,4.5 C0.223857625,4.5 0,4.72385763 0,5 C0.00540254738,6.99560562 1.19694479,8.79689454 3.03137108,9.58261149 C4.86579738,10.3683284 6.9917693,9.98798901 8.44,8.615 L8.44,9.5 C8.44,9.77614237 8.66385763,10 8.94,10 C9.21614237,10 9.44,9.77614237 9.44,9.5 L9.44,7.25 C9.43743588,6.98155355 9.22333823,6.76304152 8.955,6.755 Z M5,0 C3.71819283,0.00365609638 2.48674514,0.499456981 1.56,1.385 L1.56,0.5 C1.56,0.223857625 1.33614237,0 1.06,0 C0.783857625,0 0.56,0.223857625 0.56,0.5 L0.56,2.75 C0.56,3.02614237 0.783857625,3.25 1.06,3.25 L3.31,3.25 C3.58614237,3.25 3.81,3.02614237 3.81,2.75 C3.81,2.47385763 3.58614237,2.25 3.31,2.25 L2.11,2.25 C3.23766826,1.07153284 4.96792939,0.695800871 6.48280322,1.30043121 C7.99767705,1.90506155 8.99369894,3.3689326 9,5 C9,5.27614237 9.22385763,5.5 9.5,5.5 C9.77614237,5.5 10,5.27614237 10,5 C10,3.67391755 9.4732158,2.40214799 8.53553391,1.46446609 C7.59785201,0.526784202 6.32608245,0 5,0 Z" id="Shape"></path>
                        </g>
                    </g>
                </g>
            </g>
        </g>
    </g>
</svg>